<svg xmlns="http://www.w3.org/2000/svg" viewBox="0 0 64 64" role="img" aria-label="Vivd Stage">
  <rect width="64" height="64" rx="14" fill="#17201d" />
  <path
    d="M16 18.5c0-3 2.4-5.5 5.5-5.5h21c3 0 5.5 2.4 5.5 5.5v15c0 3-2.4 5.5-5.5 5.5h-14l-9.7 8.5c-1.1 1-2.8.2-2.8-1.3V18.5Z"
    fill="#fffdfa"
  />
  <path
    d="M32 20.2 42 24v7.2c0 6.2-4.1 10.2-10 12.6-5.9-2.4-10-6.4-10-12.6V24l10-3.8Z"
    fill="#0f766e"
  />
  <path
    d="M28.1 31.6 31 34.5l6-6"
    fill="none"
    stroke="#fffdfa"
    stroke-linecap="round"
    stroke-linejoin="round"
    stroke-width="4"
  />
</svg>
